<svg width="182" height="54" viewBox="0 0 182 54" fill="none" xmlns="http://www.w3.org/2000/svg">
<path d="M65.4219 23.65C65.4219 23.05 65.6385 22.55 66.0719 22.15C66.5052 21.7167 67.0385 21.5 67.6719 21.5C68.3052 21.5 68.8385 21.7 69.2719 22.1C69.7052 22.5 69.9219 23.0167 69.9219 23.65V34.5C69.9219 36.9333 69.1219 38.8833 67.5219 40.35C65.9219 41.7833 63.7885 42.5 61.1219 42.5C58.4885 42.5 56.3719 41.7833 54.7719 40.35C53.2052 38.8833 52.4219 36.9333 52.4219 34.5V23.65C52.4219 23.0167 52.6219 22.5167 53.0219 22.15C53.4552 21.75 54.0052 21.55 54.6719 21.55C55.3385 21.55 55.8719 21.75 56.2719 22.15C56.7052 22.5167 56.9219 23.0167 56.9219 23.65V34.5C56.9219 35.6667 57.3052 36.6167 58.0719 37.35C58.8385 38.05 59.8552 38.4 61.1219 38.4C62.4219 38.4 63.4552 38.05 64.2219 37.35C65.0219 36.6167 65.4219 35.6667 65.4219 34.5V23.65ZM85.7434 42.5C85.11 42.5 84.5767 42.3167 84.1434 41.95C83.7434 41.5833 83.5434 41.1167 83.5434 40.55V34.45C83.5434 33.2167 83.26 32.3333 82.6934 31.8C82.16 31.2667 81.4934 31 80.6934 31C79.86 31 79.16 31.2667 78.5934 31.8C78.06 32.3333 77.7267 32.95 77.5934 33.65V40.35C77.5934 40.9167 77.3767 41.4 76.9434 41.8C76.5434 42.1667 76.0434 42.35 75.4434 42.35C74.81 42.35 74.2767 42.1667 73.8434 41.8C73.41 41.4333 73.1934 40.9667 73.1934 40.4V29.2C73.1934 28.6667 73.3934 28.2167 73.7934 27.85C74.2267 27.45 74.7767 27.25 75.4434 27.25C75.9767 27.25 76.4267 27.4 76.7934 27.7C77.16 27.9667 77.41 28.3167 77.5434 28.75C78.4434 27.5833 79.81 27 81.6434 27C83.51 27 85.0267 27.55 86.1934 28.65C87.36 29.75 87.9434 31.5 87.9434 33.9V40.65C87.9434 41.1833 87.7267 41.6333 87.2934 42C86.8934 42.3333 86.3767 42.5 85.7434 42.5ZM92.9992 42.5C92.3659 42.5 91.8326 42.3167 91.3992 41.95C90.9659 41.5833 90.7492 41.1167 90.7492 40.55V29.2C90.7492 28.6667 90.9492 28.2167 91.3492 27.85C91.7826 27.45 92.3326 27.25 92.9992 27.25C93.6659 27.25 94.1826 27.45 94.5492 27.85C94.9492 28.2167 95.1492 28.6833 95.1492 29.25V40.5C95.1492 41.0667 94.9326 41.55 94.4992 41.95C94.0992 42.3167 93.5992 42.5 92.9992 42.5ZM92.9992 24.75C92.2992 24.75 91.6992 24.5333 91.1992 24.1C90.6992 23.6333 90.4492 23.05 90.4492 22.35C90.4492 21.7167 90.6992 21.1667 91.1992 20.7C91.6992 20.2333 92.2992 20 92.9992 20C93.6659 20 94.2326 20.2333 94.6992 20.7C95.1992 21.1667 95.4492 21.7167 95.4492 22.35C95.4492 23.05 95.1992 23.6333 94.6992 24.1C94.2326 24.5333 93.6659 24.75 92.9992 24.75ZM101.595 42.5C100.962 42.5 100.445 42.3167 100.045 41.95C99.6453 41.55 99.4453 41.0333 99.4453 40.4V32C99.4453 31.6667 99.2786 31.5 98.9453 31.5H98.2453C97.6453 31.5 97.1953 31.3167 96.8953 30.95C96.5953 30.5833 96.4453 30.1167 96.4453 29.55C96.4453 28.95 96.5953 28.4667 96.8953 28.1C97.1953 27.7 97.6453 27.5 98.2453 27.5H98.9453C99.2786 27.5 99.4453 27.3333 99.4453 27V25.95C99.4453 24.1167 99.9286 22.7167 100.895 21.75C101.895 20.75 103.195 20.25 104.795 20.25C105.162 20.25 105.562 20.2833 105.995 20.35C106.462 20.3833 106.829 20.45 107.095 20.55C107.562 20.7167 107.895 20.9833 108.095 21.35C108.329 21.7167 108.445 22.1 108.445 22.5C108.445 23.0333 108.279 23.5333 107.945 24C107.612 24.4333 107.145 24.65 106.545 24.65C106.279 24.65 106.029 24.6167 105.795 24.55C105.562 24.4833 105.312 24.45 105.045 24.45C104.245 24.45 103.845 25.0167 103.845 26.15V27C103.845 27.3333 104.012 27.5 104.345 27.5H106.195C106.762 27.5 107.229 27.7 107.595 28.1C107.995 28.5 108.195 28.9833 108.195 29.55C108.195 30.1167 107.995 30.5833 107.595 30.95C107.229 31.3167 106.745 31.5 106.145 31.5H104.345C104.012 31.5 103.845 31.6667 103.845 32V40.4C103.845 41 103.629 41.5 103.195 41.9C102.795 42.3 102.262 42.5 101.595 42.5ZM108.195 29C108.195 28.3333 108.429 27.8333 108.895 27.5C109.362 27.1667 109.895 27 110.495 27C110.962 27 111.362 27.1333 111.695 27.4C112.062 27.6333 112.312 27.9667 112.445 28.4L115.545 35.95C115.712 36.3833 115.945 36.6 116.245 36.6C116.545 36.6 116.762 36.3833 116.895 35.95L119.595 28.4C119.762 27.9333 120.029 27.5833 120.395 27.35C120.795 27.1167 121.212 27 121.645 27C122.212 27 122.729 27.1833 123.195 27.55C123.695 27.9167 123.945 28.4 123.945 29C123.945 29.3333 123.879 29.65 123.745 29.95L115.945 47.95C115.712 48.45 115.412 48.8 115.045 49C114.712 49.2333 114.362 49.35 113.995 49.35C113.395 49.35 112.845 49.1333 112.345 48.7C111.879 48.3 111.645 47.8167 111.645 47.25C111.645 46.95 111.712 46.6833 111.845 46.45L114.545 41.65C113.979 41.4833 113.529 41.0667 113.195 40.4L108.345 29.9C108.245 29.6 108.195 29.3 108.195 29ZM135.453 42.5C134.92 42.5 134.403 42.3 133.903 41.9C133.436 41.5 133.203 40.9833 133.203 40.35C133.203 40.0833 133.253 39.8 133.353 39.5L139.653 23.05C139.886 22.45 140.27 22 140.803 21.7C141.336 21.4 141.886 21.25 142.453 21.25C143.053 21.25 143.62 21.4 144.153 21.7C144.72 22 145.12 22.45 145.353 23.05L152.103 39.4C152.17 39.5333 152.203 39.6667 152.203 39.8C152.203 39.9333 152.203 40.0667 152.203 40.2C152.203 40.9 151.97 41.45 151.503 41.85C151.036 42.25 150.52 42.45 149.953 42.45C149.553 42.45 149.153 42.3333 148.753 42.1C148.386 41.9 148.12 41.5667 147.953 41.1L146.503 37.2C146.47 37 146.336 36.9 146.103 36.9H139.353C139.12 36.9 138.97 37 138.903 37.2L137.503 41.15C137.27 41.5833 136.97 41.9167 136.603 42.15C136.236 42.3833 135.853 42.5 135.453 42.5ZM141.153 33H144.103C144.303 33 144.453 32.9333 144.553 32.8C144.686 32.6333 144.72 32.4333 144.653 32.2L143.353 28.65C143.153 28.1167 142.903 27.85 142.603 27.85C142.303 27.85 142.053 28.1333 141.853 28.7L140.603 32.25C140.536 32.45 140.553 32.6333 140.653 32.8C140.753 32.9333 140.92 33 141.153 33ZM156.261 42.5C155.628 42.5 155.094 42.3167 154.661 41.95C154.228 41.5833 154.011 41.1167 154.011 40.55V29.2C154.011 28.6667 154.211 28.2167 154.611 27.85C155.044 27.45 155.594 27.25 156.261 27.25C156.928 27.25 157.444 27.45 157.811 27.85C158.211 28.2167 158.411 28.6833 158.411 29.25V40.5C158.411 41.0667 158.194 41.55 157.761 41.95C157.361 42.3167 156.861 42.5 156.261 42.5ZM156.261 24.75C155.561 24.75 154.961 24.5333 154.461 24.1C153.961 23.6333 153.711 23.05 153.711 22.35C153.711 21.7167 153.961 21.1667 154.461 20.7C154.961 20.2333 155.561 20 156.261 20C156.928 20 157.494 20.2333 157.961 20.7C158.461 21.1667 158.711 21.7167 158.711 22.35C158.711 23.05 158.461 23.6333 157.961 24.1C157.494 24.5333 156.928 24.75 156.261 24.75ZM163.707 42.35C163.074 42.35 162.54 42.1667 162.107 41.8C161.674 41.4333 161.457 40.9667 161.457 40.4V29.2C161.457 28.6667 161.657 28.2167 162.057 27.85C162.49 27.45 163.04 27.25 163.707 27.25C164.307 27.25 164.79 27.4333 165.157 27.8C165.557 28.1333 165.79 28.55 165.857 29.05C166.224 28.4833 166.724 28 167.357 27.6C167.99 27.2 168.657 27 169.357 27C169.79 27 170.207 27.05 170.607 27.15C171.074 27.2833 171.457 27.55 171.757 27.95C172.057 28.3167 172.207 28.75 172.207 29.25C172.207 29.95 171.974 30.5333 171.507 31C171.074 31.4333 170.557 31.5833 169.957 31.45C169.524 31.35 169.09 31.3 168.657 31.3C167.89 31.3 167.257 31.5667 166.757 32.1C166.257 32.6333 165.957 33.7167 165.857 35.35V40.35C165.857 40.9167 165.64 41.4 165.207 41.8C164.807 42.1667 164.307 42.35 163.707 42.35Z" fill="white"/>
<path d="M0.179688 22.7862C0.179688 21.2474 1.42712 20 2.9659 20V20C4.50469 20 5.75212 21.2474 5.75212 22.7862V42.4639H0.179688V22.7862Z" fill="white"/>
<rect x="16.9062" y="19.8799" width="5.57243" height="22.3768" fill="white"/>
<path d="M33.6172 19.8799H39.1896V39.4705C39.1896 41.0093 37.9422 42.2567 36.4034 42.2567V42.2567C34.8646 42.2567 33.6172 41.0093 33.6172 39.4705V19.8799Z" fill="white"/>
<path d="M16.8821 19.8795C16.8821 18.416 17.1704 16.9667 17.7305 15.6146C18.2906 14.2624 19.1115 13.0338 20.1464 11.9989C21.1813 10.964 22.4099 10.1431 23.7621 9.58303C25.1142 9.02295 26.5634 8.73468 28.027 8.73468C29.4906 8.73468 30.9398 9.02295 32.292 9.58303C33.6441 10.1431 34.8727 10.964 35.9076 11.9989C36.9425 13.0338 37.7634 14.2624 38.3235 15.6146C38.8836 16.9667 39.1719 18.416 39.1719 19.8795L36.5 23L33.5994 19.8795C33.5994 19.1478 33.4553 18.4231 33.1753 17.7471C32.8952 17.071 32.4848 16.4567 31.9673 15.9392C31.4499 15.4218 30.8356 15.0113 30.1595 14.7313C29.4834 14.4512 28.7588 14.3071 28.027 14.3071C27.2952 14.3071 26.5706 14.4512 25.8945 14.7313C25.2185 15.0113 24.6042 15.4218 24.0867 15.9392C23.5693 16.4567 23.1588 17.071 22.8788 17.7471C22.5987 18.4231 22.4546 19.1478 22.4546 19.8795L20 24L16.8821 19.8795Z" fill="white"/>
<path d="M22.4616 42.2568C22.4616 43.7204 22.1733 45.1696 21.6133 46.5218C21.0532 47.874 20.2322 49.1026 19.1974 50.1374C18.1625 51.1723 16.9339 51.9933 15.5817 52.5534C14.2295 53.1134 12.7803 53.4017 11.3167 53.4017C9.85318 53.4017 8.40394 53.1134 7.05179 52.5534C5.69963 51.9933 4.47103 51.1723 3.43613 50.1374C2.40123 49.1026 1.58031 47.874 1.02023 46.5218C0.460145 45.1696 0.171875 43.7204 0.171875 42.2568L3 39L5.74431 42.2568C5.74431 42.9886 5.88844 43.7132 6.16848 44.3893C6.44853 45.0654 6.85899 45.6797 7.37644 46.1971C7.89388 46.7146 8.50818 47.1251 9.18426 47.4051C9.86034 47.6851 10.585 47.8293 11.3167 47.8293C12.0485 47.8293 12.7731 47.6851 13.4492 47.4051C14.1253 47.1251 14.7396 46.7146 15.257 46.1971C15.7745 45.6797 16.185 45.0654 16.465 44.3893C16.745 43.7132 16.8892 42.9886 16.8892 42.2568L19.5 38L22.4616 42.2568Z" fill="white"/>
<ellipse cx="28.0266" cy="28.2384" rx="2.86255" ry="2.78622" fill="white"/>
</svg>
